<svg version="1.0" id="Calque_1" xmlns="http://www.w3.org/2000/svg" viewBox="0 0 433.8 75.1"><style>.st0{fill:#000000;}</style><path class="st0" d="M137.6 74.1V24.2h12.9v4c3.8-3.1 8.5-5 14.1-5 6.9 0 13.2 3.1 17.3 8 3.3 3.9 5.1 8.9 5.1 17.5v25.4h-13.4V47.6c0-6.2-2.4-12.1-10.5-12.1-5.8 0-12.1 3.3-12.1 13.4v25.2h-13.4zm105.9-10.2c-5.9 7.8-13.3 11.2-22.6 11.2-15.4 0-26.7-11.5-26.7-25.9 0-14.5 11.6-26 26.8-26 8.6 0 16.4 4 21 10l-9.5 8.3c-2.7-3.5-6.7-6-11.5-6-7.7 0-13.5 6.1-13.5 13.7 0 7.8 5.7 13.6 13.8 13.6 5.5 0 9.8-3.3 11.9-6.6l10.3 7.7zm50.8 2.2c-4.8 5.8-12.8 8.9-20.5 8.9-14.9 0-26.1-10.3-26.1-25.9 0-13.9 9.5-26 24.3-26 13.8 0 23.6 11.6 23.6 25.5 0 1.3-.1 3.2-.3 4.3h-34.4c.7 7 6.2 11.3 13.3 11.3 5.7 0 10.2-3.2 12.5-5.8l7.6 7.7zm-12.1-22.8c-.4-4.4-4.3-9.4-10.2-9.4-6.6 0-9.8 4.2-10.5 9.4h20.7zM70.7 23.1c-6.1 0-11.5 2.4-14.5 6.1v-5H43.4v49.9h13.4V45.6c0-5.6 4.7-10.1 12.1-10.1 1.9 0 4 .5 5.3.9v-13c-1-.1-2-.3-3.5-.3m305.6 50.3c-1.8.7-4.2 1.2-6.5 1.2-13.9 0-22.1-8.4-22.1-22V35.3H338V24h9.7V10.2H361V24h14v11.2h-14v18.5c0 4.6 1.2 8.9 9.7 8.9 1.9 0 3.9-.3 5.6-.7v11.5zM30.9 0c-6.8 0-12 2.5-15.5 5.9-3.6 3.4-5.4 8.2-5.4 16.2v2.1H0v11.3h10v38.6h13.4V35.5H38V24.2H23.4v-1.5c0-4.6.7-6.5 1.9-7.9 1.6-2 4.2-2.9 7.5-2.9 1.5 0 2.5 0 4.9.6V1c-3.1-.9-5.6-1-6.8-1m376 54.2L420 23.9h13.8l-22.3 49.6h-9.2l-22-49.6h13.8zm-292.4-30v4c-3.9-3.2-8.9-5-14.6-5-13.6 0-24.5 11.3-24.5 26 0 6.8 2.5 13 6.4 17.5 4.4 5.1 11.4 8.4 18.8 8.4 5 0 9.8-1.5 13.9-5v4h12.9V24.2h-12.9zm-13 38.2c-7.4 0-13.3-6-13.3-13.3 0-7.4 6-13.3 13.3-13.3 7.4 0 13.3 6 13.3 13.3.1 7.3-5.9 13.3-13.3 13.3m231.7-13.3c0 7.5-6.1 13.6-13.6 13.6S306 56.6 306 49.1s6.1-13.6 13.6-13.6c7.6 0 13.6 6.1 13.6 13.6"/></svg>
